<?xml version="1.0" standalone="no"?>
<!DOCTYPE svg PUBLIC "-//W3C//DTD SVG 20010904//EN"
 "http://www.w3.org/TR/2001/REC-SVG-20010904/DTD/svg10.dtd">
<svg version="1.0" xmlns="http://www.w3.org/2000/svg"
 width="400.000000pt" height="400.000000pt" viewBox="0 0 400.000000 400.000000"
 preserveAspectRatio="xMidYMid meet">

<g transform="translate(0.000000,400.000000) scale(0.100000,-0.100000)"
fill="#000000" stroke="none">
<path d="M940 3220 l0 -370 370 0 370 0 0 370 0 370 -370 0 -370 0 0 -370z
m630 0 l0 -260 -260 0 -260 0 0 260 0 260 260 0 260 0 0 -260z"/>
<path d="M1150 3220 l0 -160 160 0 160 0 0 160 0 160 -160 0 -160 0 0 -160z"/>
<path d="M2410 3220 l0 -370 370 0 370 0 0 370 0 370 -370 0 -370 0 0 -370z
m630 0 l0 -260 -260 0 -260 0 0 260 0 260 260 0 260 0 0 -260z"/>
<path d="M2620 3220 l0 -160 160 0 160 0 0 160 0 160 -160 0 -160 0 0 -160z"/>
<path d="M1890 3430 l0 -50 -55 0 -55 0 0 -315 0 -315 105 0 105 0 0 -105 0
-105 105 0 105 0 0 -55 0 -55 -105 0 -105 0 0 -105 0 -105 -50 0 -50 0 0 105
0 105 -55 0 -55 0 0 55 0 55 -105 0 -105 0 0 50 0 50 55 0 55 0 0 55 0 55
-265 0 -265 0 0 -105 0 -105 -50 0 -50 0 0 -55 0 -55 105 0 105 0 0 -50 0 -50
50 0 50 0 0 -55 0 -55 210 0 210 0 0 -50 0 -50 105 0 105 0 0 50 0 50 55 0 55
0 0 55 0 55 50 0 50 0 0 -105 0 -105 -50 0 -50 0 0 -55 0 -55 -160 0 -160 0 0
-210 0 -210 105 0 105 0 0 -105 0 -105 265 0 265 0 0 55 0 55 50 0 50 0 0 50
0 50 -50 0 -50 0 0 55 0 55 105 0 105 0 0 -105 0 -105 105 0 105 0 0 -55 0
-55 50 0 50 0 0 55 0 55 -50 0 -50 0 0 50 0 50 -55 0 -55 0 0 105 0 105 -155
0 -155 0 0 55 0 55 -55 0 -55 0 0 50 0 50 -50 0 -50 0 0 -50 0 -50 50 0 50 0
0 -55 0 -55 -105 0 -105 0 0 55 0 55 -50 0 -50 0 0 50 0 50 50 0 50 0 0 55 0
55 55 0 55 0 0 105 0 105 50 0 50 0 0 -105 0 -105 55 0 55 0 0 -55 0 -55 50 0
50 0 0 55 0 55 55 0 55 0 0 -105 0 -105 155 0 155 0 0 -55 0 -55 55 0 55 0 0
105 0 105 -55 0 -55 0 0 105 0 105 -105 0 -105 0 0 -50 0 -50 -50 0 -50 0 0
105 0 105 155 0 155 0 0 155 0 155 -50 0 -50 0 0 55 0 55 -265 0 -265 0 0 -55
0 -55 105 0 105 0 0 -50 0 -50 55 0 55 0 0 50 0 50 50 0 50 0 0 -50 0 -50 55
0 55 0 0 -55 0 -55 -210 0 -210 0 0 55 0 55 -105 0 -105 0 0 50 0 50 -55 0
-55 0 0 55 0 55 -105 0 -105 0 0 50 0 50 55 0 55 0 0 55 0 55 50 0 50 0 0 -55
0 -55 55 0 55 0 0 55 0 55 -55 0 -55 0 0 50 0 50 55 0 55 0 0 55 0 55 -55 0
-55 0 0 -55 0 -55 -50 0 -50 0 0 55 0 55 -55 0 -55 0 0 -55 0 -55 55 0 55 0 0
-50 0 -50 -55 0 -55 0 0 -55 0 -55 -50 0 -50 0 0 210 0 210 105 0 105 0 0 55
0 55 105 0 105 0 0 50 0 50 -105 0 -105 0 0 -50 0 -50 -55 0 -55 0 0 50 0 50
-50 0 -50 0 0 -50z m-530 -840 l0 -50 55 0 55 0 0 -55 0 -55 105 0 105 0 0
-50 0 -50 -160 0 -160 0 0 105 0 105 -50 0 -50 0 0 50 0 50 50 0 50 0 0 -50z
m1160 -210 l0 -50 50 0 50 0 0 -55 0 -55 -50 0 -50 0 0 55 0 55 -55 0 -55 0 0
50 0 50 55 0 55 0 0 -50z m420 -315 l0 -55 -55 0 -55 0 0 55 0 55 55 0 55 0 0
-55z m-840 -210 l0 -55 50 0 50 0 0 -105 0 -105 55 0 55 0 0 -50 0 -50 -55 0
-55 0 0 50 0 50 -105 0 -105 0 0 55 0 55 -50 0 -50 0 0 50 0 50 50 0 50 0 0
55 0 55 55 0 55 0 0 -55z m420 -315 l0 -50 -55 0 -55 0 0 50 0 50 55 0 55 0 0
-50z"/>
<path d="M1990 1750 l0 -50 55 0 55 0 0 50 0 50 -55 0 -55 0 0 -50z"/>
<path d="M940 2695 l0 -55 55 0 55 0 0 55 0 55 -55 0 -55 0 0 -55z"/>
<path d="M1050 2275 l0 -55 50 0 50 0 0 55 0 55 -50 0 -50 0 0 -55z"/>
<path d="M940 1750 l0 -370 370 0 370 0 0 370 0 370 -370 0 -370 0 0 -370z
m630 0 l0 -260 -260 0 -260 0 0 260 0 260 260 0 260 0 0 -260z"/>
<path d="M1150 1750 l0 -160 160 0 160 0 0 160 0 160 -160 0 -160 0 0 -160z"/>
<path d="M1780 1435 l0 -55 55 0 55 0 0 55 0 55 -55 0 -55 0 0 -55z"/>
<path d="M650 1273 c0 -58 2 -62 33 -82 30 -19 33 -19 39 -3 16 40 8 68 -32
107 l-40 39 0 -61z"/>
<path d="M645 615 c-24 -23 -25 -30 -25 -150 0 -121 1 -127 25 -151 22 -22 33
-25 80 -23 39 2 59 -2 73 -14 14 -13 21 -14 30 -5 15 15 15 31 1 45 -7 7 -11
58 -10 142 2 127 1 132 -23 156 -36 36 -116 36 -151 0z m120 -150 l0 -120 -45
0 -45 0 -3 109 c-1 61 0 116 3 123 3 10 18 13 47 11 l43 -3 0 -120z"/>
<path d="M890 465 l0 -175 25 0 c24 0 25 2 25 70 0 61 2 70 19 70 13 0 27 -20
49 -70 27 -61 34 -70 57 -70 31 0 29 12 -12 93 l-24 48 21 26 c31 39 28 126
-5 158 -21 22 -33 25 -90 25 l-65 0 0 -175z m125 70 l0 -50 -37 -3 -38 -3 0
56 0 56 38 -3 37 -3 0 -50z"/>
<path d="M2730 465 l0 -175 25 0 c24 0 24 1 27 98 l3 97 38 3 37 3 0 -100 0
-101 31 0 31 0 -4 106 c-3 97 -6 108 -27 125 -15 12 -39 19 -67 19 l-44 0 0
50 c0 47 -2 50 -25 50 l-25 0 0 -175z"/>
<path d="M1820 580 l0 -50 -50 0 c-75 0 -90 -19 -90 -120 0 -107 12 -120 110
-119 l70 1 0 169 c0 162 -1 169 -20 169 -17 0 -20 -7 -20 -50z m-2 -167 l-3
-78 -45 0 -45 0 -3 64 c-4 86 -1 91 53 91 l46 0 -3 -77z"/>
<path d="M2502 524 c-17 -12 -22 -25 -22 -59 0 -50 24 -75 72 -75 23 0 28 -4
28 -25 0 -23 -3 -25 -50 -25 -47 0 -50 -2 -50 -25 0 -24 3 -25 53 -25 73 0 97
19 97 75 0 50 -24 75 -72 75 -23 0 -28 4 -28 25 0 23 4 25 45 25 41 0 45 2 45
25 0 23 -3 25 -48 25 -27 0 -57 -7 -70 -16z"/>
<path d="M3035 528 c-32 -18 -35 -28 -35 -114 0 -102 9 -116 81 -122 44 -3 59
0 79 16 23 19 25 27 25 107 0 79 -2 88 -24 106 -26 21 -94 25 -126 7z m99 -54
c3 -9 6 -35 6 -59 0 -65 -7 -75 -51 -75 l-39 0 0 75 0 75 39 0 c26 0 41 -5 45
-16z"/>
<path d="M3266 418 c13 -68 23 -124 24 -125 0 -2 11 -3 24 -3 21 0 27 8 39 48
l13 47 8 -47 c7 -44 10 -48 35 -48 28 0 28 1 45 103 10 56 20 112 23 125 4 18
1 22 -20 22 -24 0 -26 -4 -32 -67 -10 -106 -18 -117 -30 -43 -8 55 -13 65 -30
65 -16 0 -22 -10 -30 -57 -5 -31 -13 -59 -17 -63 -3 -4 -9 32 -13 79 -7 85 -8
86 -34 86 l-28 0 23 -122z"/>
<path d="M1200 510 c-17 -17 -20 -33 -20 -100 0 -101 15 -120 90 -120 43 0 50
3 50 19 0 17 -8 20 -47 23 l-48 3 0 75 0 75 48 3 c39 3 47 6 47 23 0 16 -7 19
-50 19 -37 0 -55 -5 -70 -20z"/>
<path d="M1445 505 c-22 -21 -25 -33 -25 -95 0 -62 3 -74 25 -95 18 -19 35
-25 70 -25 70 0 85 21 85 120 0 99 -15 120 -85 120 -35 0 -52 -6 -70 -25z
m110 -95 l0 -75 -39 -3 c-48 -4 -56 7 -56 75 0 76 5 85 54 81 l41 -3 0 -75z"/>
<path d="M1972 514 c-20 -14 -22 -24 -22 -104 0 -80 2 -90 22 -104 14 -10 44
-16 75 -16 46 0 53 3 53 20 0 18 -7 20 -55 20 -54 0 -55 0 -55 30 l0 30 60 0
60 0 0 53 c0 40 -5 58 -18 70 -24 21 -90 22 -120 1z m98 -54 c0 -28 -2 -30
-40 -30 -38 0 -40 2 -40 30 0 28 2 30 40 30 38 0 40 -2 40 -30z"/>
<path d="M2270 315 c0 -18 5 -25 20 -25 15 0 20 7 20 25 0 18 -5 25 -20 25
-15 0 -20 -7 -20 -25z"/>
</g>
</svg>
